<svg width="12" height="20" viewBox="0 0 12 20" fill="none" xmlns="http://www.w3.org/2000/svg">
<path d="M2.14964 0.718003C1.6257 0.543356 1.05938 0.826516 0.884732 1.35046C0.710084 1.8744 0.993244 2.44072 1.51719 2.61537L2.14964 0.718003ZM10.1667 10L10.8739 10.7071C11.2588 10.3222 11.2651 9.70016 10.8881 9.30749L10.1667 10ZM1.12631 17.6262C0.735784 18.0168 0.735784 18.6499 1.12631 19.0405C1.51683 19.431 2.15 19.431 2.54052 19.0405L1.12631 17.6262ZM1.51719 2.61537C1.44697 2.59197 1.3975 2.56599 1.37792 2.55535C1.35447 2.54261 1.33904 2.53259 1.33386 2.52917C1.32411 2.52274 1.32676 2.52385 1.34591 2.53887C1.38325 2.56814 1.44411 2.61932 1.53186 2.69744C1.70516 2.85175 1.94433 3.07625 2.23884 3.36049C2.82575 3.92693 3.60359 4.70265 4.45573 5.5643C6.15855 7.28614 8.14015 9.33296 9.44536 10.6926L10.8881 9.30749C9.57896 7.94377 7.58998 5.88929 5.87777 4.15796C5.02239 3.29303 4.2316 2.50421 3.62774 1.92141C3.32687 1.63103 3.06513 1.38475 2.86184 1.20374C2.76129 1.11421 2.66495 1.03161 2.5799 0.964926C2.53785 0.931965 2.48802 0.894556 2.43495 0.859556C2.40021 0.836652 2.29252 0.765628 2.14964 0.718003L1.51719 2.61537ZM9.45964 9.29291L1.12631 17.6262L2.54052 19.0405L10.8739 10.7071L9.45964 9.29291Z" fill="black"/>
</svg>
