<svg width="24" height="24" viewBox="0 0 24 24" fill="none" xmlns="http://www.w3.org/2000/svg">
<path d="M11.655 22.365C11.75 22.455 11.875 22.5 12 22.5C12.125 22.5 12.25 22.455 12.345 22.365C12.675 22.045 20.5 14.58 20.5 10C20.5 5.315 16.685 1.5 12 1.5C7.315 1.5 3.5 5.315 3.5 10C3.5 14.58 11.325 22.045 11.655 22.365ZM12 2.5C16.135 2.5 19.5 5.865 19.5 10C19.5 13.645 13.515 19.805 12 21.3C10.485 19.805 4.5 13.65 4.5 10C4.5 5.865 7.865 2.5 12 2.5Z" fill="#558D84"/>
<path d="M15.5 10C15.5 8.07 13.93 6.5 12 6.5C10.07 6.5 8.5 8.07 8.5 10C8.5 11.93 10.07 13.5 12 13.5C13.93 13.5 15.5 11.93 15.5 10ZM9.5 10C9.5 8.62 10.62 7.5 12 7.5C13.38 7.5 14.5 8.62 14.5 10C14.5 11.38 13.38 12.5 12 12.5C10.62 12.5 9.5 11.38 9.5 10Z" fill="#558D84"/>
</svg>
