<svg width="10" height="16" viewBox="0 0 10 16" fill="none" xmlns="http://www.w3.org/2000/svg">
<path d="M7.85901 16.0898C8.64493 16.3517 9.49441 15.927 9.75638 15.1411C10.0184 14.3552 9.59361 13.5057 8.8077 13.2437L7.85901 16.0898ZM1.66669 8.00008L0.606027 6.93942C0.0286745 7.51677 0.0191542 8.44987 0.584606 9.03888L1.66669 8.00008ZM9.39401 2.39407C9.9798 1.80829 9.9798 0.85854 9.39401 0.272753C8.80823 -0.313032 7.85848 -0.313033 7.27269 0.272753L9.39401 2.39407ZM8.8077 13.2437C8.99382 13.3058 9.1161 13.3909 9.11838 13.3924C9.14817 13.412 9.16256 13.4239 9.15525 13.4181C9.14208 13.4078 9.10581 13.3779 9.0401 13.3193C8.91195 13.2053 8.72851 13.0333 8.49512 12.808C8.03153 12.3606 7.41379 11.7446 6.73322 11.0564C5.37425 9.68229 3.79155 8.04751 2.74877 6.96128L0.584606 9.03888C1.63333 10.1313 3.2271 11.7776 4.60016 13.1659C5.28559 13.859 5.92276 14.4947 6.41178 14.9667C6.6547 15.2011 6.872 15.4058 7.04512 15.5599C7.13004 15.6355 7.21954 15.7126 7.30428 15.779C7.34592 15.8117 7.40231 15.8543 7.46675 15.8968C7.50369 15.9212 7.65328 16.0212 7.85901 16.0898L8.8077 13.2437ZM2.72735 9.06074L9.39401 2.39407L7.27269 0.272753L0.606027 6.93942L2.72735 9.06074Z" fill="white"/>
</svg>
