<svg width="10" height="16" viewBox="0 0 10 16" fill="none" xmlns="http://www.w3.org/2000/svg">
<path d="M2.14099 -0.0897732C1.35507 -0.351745 0.505593 0.072995 0.243622 0.85891C-0.0183497 1.64482 0.40639 2.4943 1.19231 2.75628L2.14099 -0.0897732ZM8.33331 7.99992L9.39397 9.06058C9.97132 8.48323 9.98085 7.55013 9.41539 6.96112L8.33331 7.99992ZM0.605986 13.6059C0.0201992 14.1917 0.0201992 15.1415 0.605986 15.7272C1.19177 16.313 2.14152 16.313 2.72731 15.7272L0.605986 13.6059ZM1.19231 2.75628C1.00618 2.69424 0.883905 2.60911 0.881624 2.6076C0.851834 2.58796 0.837442 2.57614 0.844753 2.58188C0.857924 2.5922 0.894193 2.62214 0.959906 2.68065C1.08805 2.79475 1.27149 2.96673 1.50488 3.19198C1.96847 3.6394 2.58621 4.25539 3.26678 4.94356C4.62575 6.31771 6.20845 7.95249 7.25123 9.03872L9.41539 6.96112C8.36667 5.8687 6.7729 4.22243 5.39984 2.83405C4.71441 2.14096 4.07724 1.50532 3.58822 1.03335C3.3453 0.798902 3.12801 0.594249 2.95488 0.4401C2.86996 0.364488 2.78047 0.287401 2.69572 0.220964C2.65408 0.188314 2.5977 0.145683 2.53325 0.103182C2.49631 0.0788238 2.34672 -0.021196 2.14099 -0.0897732L1.19231 2.75628ZM7.27265 6.93926L0.605986 13.6059L2.72731 15.7272L9.39397 9.06058L7.27265 6.93926Z" fill="white"/>
</svg>
