<svg width="24" height="14" viewBox="0 0 24 14" fill="none" xmlns="http://www.w3.org/2000/svg">
<path d="M0.576975 11.5257C0.315003 12.3116 0.739743 13.1611 1.52566 13.423C2.31157 13.685 3.16105 13.2603 3.42302 12.4743L0.576975 11.5257ZM12 2L13.0607 0.93934C12.4833 0.361988 11.5502 0.352467 10.9612 0.917919L12 2ZM20.9393 13.0607C21.5251 13.6464 22.4749 13.6464 23.0607 13.0607C23.6464 12.4749 23.6464 11.5251 23.0607 10.9393L20.9393 13.0607ZM3.42302 12.4743C3.3873 12.5815 3.34734 12.6579 3.32999 12.6898C3.30949 12.7276 3.29269 12.7536 3.28542 12.7646C3.27149 12.7858 3.26738 12.7896 3.28271 12.7701C3.31222 12.7324 3.36892 12.6647 3.46096 12.5614C3.64212 12.3579 3.90826 12.0743 4.24843 11.7218C4.9257 11.0201 5.8546 10.0886 6.88809 9.06653C8.95287 7.02455 11.4079 4.64774 13.0388 3.08208L10.9612 0.917919C9.32412 2.48952 6.85759 4.87741 4.77858 6.93347C3.74017 7.96041 2.79162 8.9113 2.0898 9.63848C1.74043 10.0005 1.44162 10.318 1.22041 10.5664C1.11127 10.689 1.00742 10.8099 0.921796 10.9191C0.87955 10.973 0.829216 11.0399 0.781001 11.113C0.750929 11.1586 0.647186 11.315 0.576975 11.5257L3.42302 12.4743ZM10.9393 3.06066L20.9393 13.0607L23.0607 10.9393L13.0607 0.93934L10.9393 3.06066Z" fill="#558D84"/>
</svg>
