<svg width="24" height="14" viewBox="0 0 24 14" fill="none" xmlns="http://www.w3.org/2000/svg">
<path d="M23.423 2.47434C23.685 1.68843 23.2603 0.838946 22.4743 0.576975C21.6884 0.315003 20.8389 0.739743 20.577 1.52566L23.423 2.47434ZM12 12L10.9393 13.0607C11.5167 13.638 12.4498 13.6475 13.0388 13.0821L12 12ZM3.06066 0.939341C2.47487 0.353555 1.52512 0.353555 0.939338 0.939341C0.353553 1.52513 0.353553 2.47488 0.939338 3.06066L3.06066 0.939341ZM20.577 1.52566C20.6127 1.4185 20.6527 1.34209 20.67 1.31016C20.6905 1.27244 20.7073 1.24639 20.7146 1.23537C20.7285 1.21425 20.7326 1.21035 20.7173 1.2299C20.6878 1.26755 20.6311 1.33526 20.539 1.43863C20.3579 1.64209 20.0917 1.92572 19.7516 2.27818C19.0743 2.97993 18.1454 3.91139 17.1119 4.93347C15.0471 6.97545 12.5921 9.35226 10.9612 10.9179L13.0388 13.0821C14.6759 11.5105 17.1424 9.12259 19.2214 7.06653C20.2598 6.03959 21.2084 5.0887 21.9102 4.36152C22.2596 3.99953 22.5584 3.68205 22.7796 3.43361C22.8887 3.31103 22.9926 3.19009 23.0782 3.08087C23.1204 3.02699 23.1708 2.96011 23.219 2.887C23.2491 2.8414 23.3528 2.68497 23.423 2.47434L20.577 1.52566ZM13.0607 10.9393L3.06066 0.939341L0.939338 3.06066L10.9393 13.0607L13.0607 10.9393Z" fill="black"/>
</svg>
