<svg width="24" height="24" viewBox="0 0 24 24" fill="none" xmlns="http://www.w3.org/2000/svg">
<path d="M5.74297 19.7009C5.34423 20.0997 4.69777 20.0997 4.29905 19.7009C3.90032 19.3022 3.90032 18.6557 4.29905 18.257L10.5561 12L4.29905 5.74297C3.90032 5.34423 3.90032 4.69777 4.29905 4.29905C4.69777 3.90032 5.34423 3.90032 5.74297 4.29905L12 10.5561L18.257 4.29905C18.6557 3.90032 19.3022 3.90032 19.7009 4.29905C20.0997 4.69777 20.0997 5.34423 19.7009 5.74297L13.4438 12L19.7009 18.257C20.0997 18.6557 20.0997 19.3022 19.7009 19.7009C19.3022 20.0997 18.6557 20.0997 18.257 19.7009L12 13.4438L5.74297 19.7009Z" fill="black"/>
</svg>
