<svg width="72" height="72" viewBox="0 0 72 72" fill="none" xmlns="http://www.w3.org/2000/svg">
<rect width="72" height="72" rx="8" fill="#F8AF00"/>
<path d="M52.6101 45.9568C51.3626 35.9769 41.5213 27.9375 39.9504 27.2907C39.165 26.9673 35.7921 26.8286 33.713 27.0135L28.6306 21.6077C28.3996 21.2843 28.723 20.7298 29.1389 20.5912L31.2642 19.7134L32.7889 22.5317C32.9275 22.7628 33.2048 22.9476 33.5744 22.7628C33.8516 22.6242 33.9902 22.3007 33.8054 21.9773L31.8649 18.3735C31.7725 17.9114 32.4193 17.357 32.9737 17.357H39.2574C39.8118 17.357 40.4587 17.9114 40.3201 18.3735L38.4719 21.9773C38.3333 22.2545 38.4257 22.5779 38.7029 22.7628C38.9802 22.9014 39.3498 22.809 39.4884 22.5317L41.0131 19.7134L43.046 20.545C43.4619 20.7298 43.8777 21.1919 43.5543 21.6077L40.2739 25.2115C40.0428 25.4425 40.089 25.8122 40.3201 26.0432C40.5511 26.2742 40.9669 26.228 41.1517 25.997L44.4783 22.3469C45.3562 21.3767 45.079 20.1754 43.4619 19.5285L41.4289 18.6969L41.4751 18.5121C41.66 17.4956 40.4587 16.2943 39.2574 16.2943H32.9737C31.7263 16.2943 30.5712 17.4032 30.756 18.5121L30.8022 18.6969L28.723 19.4823C27.7066 19.8982 27.0135 21.2843 27.6142 22.1159C27.6604 22.1621 32.3269 27.2907 32.2807 27.2907C30.7098 27.9375 20.8685 35.9769 19.621 45.9568C19.2514 48.729 19.852 50.9929 21.3305 52.6563C23.9641 55.6133 28.3996 55.6133 28.5844 55.6133H43.6467C43.8777 55.6133 48.3132 55.5671 50.9006 52.6563C52.3791 50.9929 52.9797 48.729 52.6101 45.9568ZM50.0689 51.917C47.805 54.4582 43.7391 54.5044 43.6929 54.5044H28.5844C28.5382 54.5044 24.4723 54.4582 22.2084 51.917C20.9609 50.4847 20.4527 48.5442 20.7761 46.0954C22.0236 36.3003 31.9573 28.6768 32.7427 28.3534C33.1124 28.2147 34.6371 28.1223 36.1156 28.1223C37.5941 28.1223 39.1188 28.2147 39.4884 28.3534C40.2739 28.6768 50.2075 36.3003 51.455 46.0954C51.7785 48.5442 51.3164 50.4847 50.0689 51.917V51.917Z" fill="white" stroke="white" stroke-width="0.4"/>
<path d="M37.8713 36.5313C38.6567 36.5313 39.4422 36.7161 40.1353 37.0857C40.4125 37.2243 40.7821 37.1319 40.9207 36.8547C41.0593 36.5775 40.9669 36.2079 40.6897 36.0693C39.8118 35.6072 38.8416 35.3762 37.8713 35.3762C35.0991 35.3762 32.7427 37.2243 31.8649 39.8117H30.0167C29.6933 39.8117 29.4623 40.0889 29.4623 40.3662C29.4623 40.6434 29.7395 40.9206 30.0167 40.9206H31.5414C31.4952 41.2902 31.449 41.6598 31.449 42.0295C31.449 42.3991 31.4952 42.7687 31.5414 43.1384H29.9705C29.6471 43.1384 29.4161 43.4156 29.4161 43.6928C29.4161 43.97 29.6933 44.2472 29.9705 44.2472H31.8187C32.6965 46.8346 35.0529 48.6827 37.8251 48.6827C38.7954 48.6827 39.7194 48.4517 40.5511 48.0359C40.8283 47.8973 40.9669 47.5277 40.8283 47.2504C40.6897 46.9732 40.3201 46.8346 40.0428 46.9732C39.3498 47.2966 38.5643 47.4814 37.8251 47.4814C35.6997 47.4814 33.8516 46.1416 33.0199 44.2472H39.2574C39.5808 44.2472 39.8118 43.97 39.8118 43.6928C39.8118 43.4156 39.5346 43.1384 39.2574 43.1384H32.7427C32.6503 42.7687 32.6503 42.3991 32.6503 41.9833C32.6503 41.6136 32.6965 41.244 32.7427 40.8744H39.3498C39.6732 40.8744 39.9042 40.5972 39.9042 40.32C39.9042 40.0427 39.627 39.8117 39.3036 39.8117H33.0662C33.8978 37.8712 35.7459 36.5313 37.8713 36.5313V36.5313Z" fill="white" stroke="white" stroke-width="0.4"/>
</svg>
