<svg width="73" height="72" viewBox="0 0 73 72" fill="none" xmlns="http://www.w3.org/2000/svg">
<rect x="0.333344" width="72" height="72" rx="8" fill="#F8AF00"/>
<g clip-path="url(#clip0_409_1438)">
<path d="M16.7575 51.1896L25.981 41.1497L26.0119 41.1211C26.5892 40.5885 27.3 40.2191 28.0676 40.0528C36.2388 38.6112 36.3167 38.6075 36.4724 38.6001C36.4818 38.5997 36.4916 38.5992 36.5034 38.5984C38.098 38.4914 39.6148 39.3308 40.3634 40.7799L40.4981 41.0407L40.7342 40.8661L51.3922 32.9832C51.3926 32.9829 51.393 32.9826 51.3934 32.9823C52.3176 32.317 53.4779 32.1044 54.5781 32.399L54.6428 32.1575L54.5781 32.399C57.2115 33.1039 58.2705 36.2993 56.5311 38.4352C56.5309 38.4355 56.5306 38.4358 56.5303 38.4361L45.187 52.0761L45.1857 52.0777C44.4949 52.9227 43.5212 53.4789 42.4423 53.6448L29.0632 55.6648L29.0396 55.6684L29.0171 55.6763L24.4055 57.308L16.7575 51.1896ZM42.1351 51.6273L42.1357 51.6272C42.7127 51.5385 43.2365 51.2388 43.6073 50.7842C43.6076 50.7839 43.6079 50.7836 43.6081 50.7832L54.9504 37.1444L54.7583 36.9846L54.9526 37.1418C55.3671 36.6291 55.4566 35.9365 55.1855 35.335C54.7351 34.3357 53.4835 33.9976 52.5914 34.6343L52.5914 34.6343L52.5879 34.6368L40.8257 43.3364L40.7498 43.3926L40.7299 43.4849C40.3914 45.0593 39.1504 46.3282 37.484 46.6288L37.5284 46.8748L37.484 46.6288L31.241 47.7548L30.8789 45.7465L37.1219 44.6205L37.1219 44.6205C38.4105 44.388 39.1353 43.0073 38.5981 41.8156C38.2125 40.9598 37.2984 40.4874 36.3777 40.6688C27.5425 42.2153 28.5721 42.0351 28.4903 42.0494L28.4902 42.0491L28.4781 42.0519C28.091 42.1396 27.7317 42.3236 27.4343 42.5861L27.4245 42.5947L27.4156 42.6044L19.9197 50.7639L19.7386 50.961L19.9476 51.1282L24.6858 54.9188L24.7943 55.0056L24.9254 54.9592L28.5425 53.6795L42.1351 51.6273Z" fill="white" stroke="#F8AF00" stroke-width="0.5"/>
<mask id="path-3-inside-1_409_1438" fill="white">
<path d="M20.8206 39.2199L31.4811 31.3352C32.3375 33.0112 34.2169 33.9517 36.121 33.581C36.1934 33.5684 35.2365 33.7359 44.0472 32.1928C44.8603 32.0176 45.613 31.6268 46.2243 31.0629L46.2628 31.0273L55.6744 20.7826L47.7088 14.4102L42.9661 16.0882L29.5863 18.1083C28.4464 18.2835 27.4173 18.8715 26.6874 19.7642C26.2916 20.2401 15.905 32.7298 15.3425 33.4061C13.4865 35.6838 14.6164 39.0912 17.4238 39.8427C18.6019 40.1581 19.8393 39.9268 20.8206 39.2199ZM17.1091 36.5623C16.8768 36.047 16.9533 35.4549 17.3085 35.0156C17.7043 34.5397 28.09 22.0513 28.6524 21.3749C28.9843 20.9676 29.453 20.6994 29.969 20.6201L43.5851 18.5643L47.2247 17.2766L51.9629 21.0672L44.467 29.2267C44.2009 29.4614 43.8795 29.6261 43.5333 29.7045C43.4515 29.7188 44.4813 29.5386 35.6432 31.0857C34.8352 31.2455 34.0348 30.8326 33.6965 30.0818C33.226 29.0383 33.8607 27.8293 34.9892 27.6257L41.4782 26.4554L41.0273 23.955L34.5383 25.1254C32.7803 25.4424 31.4539 26.7812 31.0923 28.4627L19.33 37.1623C18.5666 37.7075 17.4947 37.4179 17.1091 36.5623Z"/>
</mask>
<path d="M20.8206 39.2199L31.4811 31.3352C32.3375 33.0112 34.2169 33.9517 36.121 33.581C36.1934 33.5684 35.2365 33.7359 44.0472 32.1928C44.8603 32.0176 45.613 31.6268 46.2243 31.0629L46.2628 31.0273L55.6744 20.7826L47.7088 14.4102L42.9661 16.0882L29.5863 18.1083C28.4464 18.2835 27.4173 18.8715 26.6874 19.7642C26.2916 20.2401 15.905 32.7298 15.3425 33.4061C13.4865 35.6838 14.6164 39.0912 17.4238 39.8427C18.6019 40.1581 19.8393 39.9268 20.8206 39.2199ZM17.1091 36.5623C16.8768 36.047 16.9533 35.4549 17.3085 35.0156C17.7043 34.5397 28.09 22.0513 28.6524 21.3749C28.9843 20.9676 29.453 20.6994 29.969 20.6201L43.5851 18.5643L47.2247 17.2766L51.9629 21.0672L44.467 29.2267C44.2009 29.4614 43.8795 29.6261 43.5333 29.7045C43.4515 29.7188 44.4813 29.5386 35.6432 31.0857C34.8352 31.2455 34.0348 30.8326 33.6965 30.0818C33.226 29.0383 33.8607 27.8293 34.9892 27.6257L41.4782 26.4554L41.0273 23.955L34.5383 25.1254C32.7803 25.4424 31.4539 26.7812 31.0923 28.4627L19.33 37.1623C18.5666 37.7075 17.4947 37.4179 17.1091 36.5623Z" fill="white"/>
<path d="M20.8206 39.2199L21.1129 39.6256L21.118 39.6219L20.8206 39.2199ZM31.4811 31.3352L31.9264 31.1077L31.658 30.5824L31.1838 30.9332L31.4811 31.3352ZM36.121 33.581L36.0351 33.0883L36.0254 33.0902L36.121 33.581ZM44.0472 32.1928L44.1335 32.6853L44.1431 32.6837L44.1526 32.6816L44.0472 32.1928ZM46.2243 31.0629L46.5634 31.4304L46.5635 31.4303L46.2243 31.0629ZM46.2628 31.0273L46.602 31.3947L46.6171 31.3807L46.6311 31.3656L46.2628 31.0273ZM55.6744 20.7826L56.0426 21.1209L56.4048 20.7266L55.9868 20.3922L55.6744 20.7826ZM47.7088 14.4102L48.0211 14.0197L47.8041 13.8461L47.542 13.9388L47.7088 14.4102ZM42.9661 16.0882L43.0408 16.5826L43.0879 16.5754L43.1329 16.5595L42.9661 16.0882ZM29.5863 18.1083L29.5117 17.6139L29.5104 17.6141L29.5863 18.1083ZM26.6874 19.7642L27.0719 20.0839L27.0745 20.0807L26.6874 19.7642ZM15.3425 33.4061L14.9581 33.0864L14.9549 33.0903L15.3425 33.4061ZM17.4238 39.8427L17.5531 39.3597L17.5531 39.3597L17.4238 39.8427ZM17.1091 36.5623L17.5649 36.3569L17.5649 36.3569L17.1091 36.5623ZM17.3085 35.0156L16.9241 34.6959L16.9198 34.7012L17.3085 35.0156ZM28.6524 21.3749L29.0369 21.6946L29.04 21.6907L28.6524 21.3749ZM29.969 20.6201L29.8943 20.1257L29.893 20.1259L29.969 20.6201ZM43.5851 18.5643L43.6598 19.0587L43.7069 19.0516L43.7519 19.0357L43.5851 18.5643ZM47.2247 17.2766L47.537 16.8862L47.32 16.7126L47.0579 16.8053L47.2247 17.2766ZM51.9629 21.0672L52.3311 21.4055L52.6933 21.0112L52.2752 20.6768L51.9629 21.0672ZM44.467 29.2267L44.7978 29.6016L44.8174 29.5842L44.8352 29.5649L44.467 29.2267ZM43.5333 29.7045L43.6195 30.197L43.6317 30.1949L43.6438 30.1921L43.5333 29.7045ZM35.6432 31.0857L35.5569 30.593L35.5461 30.5952L35.6432 31.0857ZM33.6965 30.0818L34.1524 29.8764L34.1523 29.8763L33.6965 30.0818ZM34.9892 27.6257L34.9004 27.1337L34.9004 27.1337L34.9892 27.6257ZM41.4782 26.4554L41.5669 26.9474L42.059 26.8587L41.9702 26.3666L41.4782 26.4554ZM41.0273 23.955L41.5193 23.8663L41.4306 23.3742L40.9385 23.463L41.0273 23.955ZM34.5383 25.1254L34.627 25.6174L34.627 25.6174L34.5383 25.1254ZM31.0923 28.4627L31.3896 28.8647L31.5415 28.7525L31.5811 28.5679L31.0923 28.4627ZM19.33 37.1623L19.6206 37.5693L19.6273 37.5643L19.33 37.1623ZM21.118 39.6219L31.7785 31.7372L31.1838 30.9332L20.5233 38.8179L21.118 39.6219ZM31.0359 31.5626C31.993 33.4361 34.0924 34.4853 36.2165 34.0718L36.0254 33.0902C34.3414 33.4181 32.6819 32.5864 31.9264 31.1077L31.0359 31.5626ZM36.2068 34.0736C36.2795 34.0609 35.3231 34.2284 44.1335 32.6853L43.961 31.7003C35.15 33.2435 36.1073 33.0759 36.0351 33.0884L36.2068 34.0736ZM44.1526 32.6816C45.053 32.4876 45.8864 32.0549 46.5634 31.4304L45.8853 30.6954C45.3396 31.1988 44.6675 31.5477 43.9419 31.7041L44.1526 32.6816ZM46.5635 31.4303L46.602 31.3947L45.9237 30.6599L45.8852 30.6955L46.5635 31.4303ZM46.6311 31.3656L56.0426 21.1209L55.3062 20.4444L45.8946 30.689L46.6311 31.3656ZM55.9868 20.3922L48.0211 14.0197L47.3964 14.8006L55.3621 21.1731L55.9868 20.3922ZM47.542 13.9388L42.7994 15.6168L43.1329 16.5595L47.8756 14.8815L47.542 13.9388ZM42.8915 15.5938L29.5117 17.6139L29.661 18.6027L43.0408 16.5826L42.8915 15.5938ZM29.5104 17.6141C28.2483 17.8081 27.1084 18.4594 26.3003 19.4477L27.0745 20.0807C27.7262 19.2836 28.6445 18.759 29.6623 18.6025L29.5104 17.6141ZM26.303 19.4445C25.9072 19.9204 15.5206 32.4101 14.9581 33.0864L15.7269 33.7259C16.2894 33.0495 26.6761 20.5598 27.0718 20.0839L26.303 19.4445ZM14.9549 33.0903C12.8678 35.6516 14.1399 39.4813 17.2945 40.3257L17.5531 39.3597C15.093 38.7012 14.1052 35.7161 15.7301 33.722L14.9549 33.0903ZM17.2945 40.3257C18.6182 40.6801 20.0103 40.4199 21.1129 39.6256L20.5284 38.8142C19.6683 39.4338 18.5855 39.6361 17.5531 39.3597L17.2945 40.3257ZM17.5649 36.3569C17.4102 36.0136 17.4607 35.6226 17.6973 35.33L16.9198 34.7012C16.4458 35.2872 16.3434 36.0804 16.6533 36.7678L17.5649 36.3569ZM17.693 35.3353C18.0887 34.8595 28.4744 22.371 29.0369 21.6946L28.268 21.0552C27.7055 21.7316 17.3199 34.22 16.9241 34.6959L17.693 35.3353ZM29.04 21.6907C29.294 21.3791 29.6518 21.1747 30.0449 21.1143L29.893 20.1259C29.2543 20.224 28.6747 20.5561 28.2648 21.059L29.04 21.6907ZM30.0436 21.1145L43.6598 19.0587L43.5105 18.0699L29.8943 20.1257L30.0436 21.1145ZM43.7519 19.0357L47.3915 17.748L47.0579 16.8053L43.4184 18.0929L43.7519 19.0357ZM46.9123 17.6671L51.6505 21.4576L52.2752 20.6768L47.537 16.8862L46.9123 17.6671ZM51.5947 20.7289L44.0987 28.8884L44.8352 29.5649L52.3311 21.4055L51.5947 20.7289ZM44.1361 28.8518C43.9328 29.0312 43.6872 29.157 43.4228 29.2169L43.6438 30.1921C44.0719 30.0952 44.469 29.8917 44.7978 29.6016L44.1361 28.8518ZM43.4471 29.212C43.3653 29.2263 44.395 29.0461 35.5569 30.5931L35.7294 31.5782C44.5675 30.0311 43.5377 30.2113 43.6195 30.197L43.4471 29.212ZM35.5461 30.5952C34.9664 30.7098 34.3951 30.4152 34.1524 29.8764L33.2406 30.2872C33.6744 31.25 34.704 31.7811 35.7402 31.5762L35.5461 30.5952ZM34.1523 29.8763C33.8155 29.1291 34.2699 28.2636 35.0779 28.1178L34.9004 27.1337C33.4516 27.3951 32.6366 28.9475 33.2407 30.2873L34.1523 29.8763ZM35.0779 28.1178L41.5669 26.9474L41.3894 25.9633L34.9004 27.1337L35.0779 28.1178ZM41.9702 26.3666L41.5193 23.8663L40.5352 24.0438L40.9861 26.5441L41.9702 26.3666ZM40.9385 23.463L34.4495 24.6333L34.627 25.6174L41.116 24.4471L40.9385 23.463ZM34.4495 24.6333C32.487 24.9872 31.0065 26.4831 30.6035 28.3576L31.5811 28.5679C31.9012 27.0793 33.0736 25.8976 34.627 25.6174L34.4495 24.6333ZM30.795 28.0608L19.0326 36.7603L19.6273 37.5643L31.3896 28.8647L30.795 28.0608ZM19.0394 36.7554C18.5328 37.1171 17.821 36.9252 17.5649 36.3569L16.6532 36.7678C17.1683 37.9107 18.6003 38.2978 19.6205 37.5692L19.0394 36.7554Z" fill="#F8AF00" mask="url(#path-3-inside-1_409_1438)"/>
</g>
<defs>
<clipPath id="clip0_409_1438">
<rect width="43.2" height="43.2" fill="white" transform="translate(14.4333 14.4)"/>
</clipPath>
</defs>
</svg>
