<svg width="73" height="72" viewBox="0 0 73 72" fill="none" xmlns="http://www.w3.org/2000/svg">
<rect x="0.666687" width="72" height="72" rx="8" fill="#F8AF00"/>
<g clip-path="url(#clip0_409_1444)">
<path d="M17.2267 57.6H20.8266C21.4376 57.5981 22.0188 57.3363 22.425 56.88H40.4826C41.539 56.8804 42.5751 56.5897 43.4771 56.0398L56.9706 47.8253C57.6188 47.4304 58.0705 46.7805 58.2148 46.0354C58.3584 45.3132 58.1951 44.5638 57.7641 43.9668C57.7512 43.9457 57.7373 43.9253 57.7223 43.9056C57.027 42.978 55.8153 42.6007 54.7163 42.9696L43.5635 46.687L57.3357 32.9091C57.6168 32.6279 57.6168 32.1721 57.3357 31.891L51.5757 26.131C50.4741 25.0629 48.7177 25.0818 47.6394 26.1735L47.571 26.2411C47.2042 26.6207 47.0333 27.1485 47.1081 27.6711C47.278 29.0597 46.6151 30.4184 45.4161 31.1393C44.3481 31.8006 43.0014 31.8148 41.9198 31.176C41.0402 30.6557 40.455 29.7534 40.3386 28.7381C40.2154 27.6618 40.5949 26.5886 41.3675 25.8291C42.1401 25.0696 43.2195 24.7085 44.2936 24.8501C44.8044 24.9229 45.32 24.7542 45.689 24.3936L45.7696 24.3137C46.8636 23.2346 46.8829 21.4753 45.8128 20.3724L40.0528 14.6124C39.7716 14.3313 39.3159 14.3313 39.0347 14.6124L33.0947 20.5459C32.8378 20.807 32.4889 20.9572 32.1227 20.9643C31.7582 20.9861 31.4039 20.8384 31.163 20.5639L31.1226 20.5236C31.09 20.4726 31.0789 20.4107 31.0917 20.3515C31.3504 18.8863 30.8993 17.3852 29.8758 16.3053C28.8522 15.2255 27.3774 14.6946 25.9005 14.8745C24.3705 15.0516 23.0054 15.9186 22.1946 17.2282C21.2368 18.7489 21.2007 20.6753 22.101 22.2307C23.0948 23.916 25.0259 24.8126 26.9546 24.4843C27.0214 24.4685 27.0918 24.4819 27.1482 24.5211L27.2058 24.5787C27.4515 24.8257 27.5859 25.1621 27.5781 25.5103C27.5723 25.8767 27.4231 26.2261 27.1626 26.4838L21.2226 32.4159C21.0875 32.5509 21.0115 32.7342 21.0115 32.9253C21.0115 33.1164 21.0875 33.2996 21.2226 33.4347L29.3493 41.5591C29.1721 41.4484 29.001 41.3282 28.8366 41.1991C27.5431 40.1665 25.9378 39.6028 24.2826 39.6H22.8542C22.5501 38.7401 21.7387 38.1638 20.8266 38.16H17.2267C16.0337 38.16 15.0667 39.1271 15.0667 40.32V55.44C15.0667 56.633 16.0337 57.6 17.2267 57.6ZM22.7526 32.9256L28.1829 27.504C28.7096 26.9818 29.0103 26.2736 29.0202 25.5319C29.0357 24.795 28.7496 24.0837 28.2282 23.5627L28.1714 23.5059C27.7918 23.1332 27.2545 22.9688 26.7314 23.0652C25.3866 23.2921 24.0411 22.6669 23.3474 21.4927C22.7219 20.4053 22.7493 19.061 23.4186 18C23.9955 17.0618 24.9696 16.4389 26.0632 16.3087C27.0923 16.1805 28.1208 16.5502 28.8328 17.3042C29.5448 18.0581 29.8551 19.1061 29.6682 20.1262C29.5818 20.6486 29.7504 21.1809 30.1218 21.5583L30.1744 21.6051C30.6853 22.1183 31.3806 22.4054 32.1047 22.4021H32.1486C32.8888 22.3898 33.5948 22.0885 34.1157 21.5626L39.5466 16.1381L44.7954 21.384C45.307 21.923 45.2893 22.7733 44.7558 23.2906L44.6745 23.3705C44.6204 23.412 44.5517 23.4294 44.4844 23.4187C42.9695 23.2191 41.4471 23.7291 40.3583 24.8011C39.2694 25.8731 38.7356 27.3873 38.9116 28.9051C39.0843 30.3549 39.9154 31.6441 41.1645 32.4C42.7109 33.319 44.6397 33.3038 46.1714 32.3604C47.8522 31.3463 48.7782 29.4375 48.5344 27.4896C48.5183 27.4089 48.5365 27.3251 48.5848 27.2585L48.6525 27.1908C49.1684 26.6569 50.018 26.6376 50.5576 27.1476L55.8086 32.4L40.6986 47.52H40.2976C40.64 46.5828 40.5416 45.5412 40.0298 44.6847L39.965 44.5774C39.1803 43.2788 37.7749 42.4837 36.2577 42.48H32.4906C32.4258 42.48 32.3618 42.4735 32.297 42.4714L22.7526 32.9256ZM27.9366 42.3223C29.096 43.2456 30.5082 43.7952 31.9866 43.8984C32.1544 43.91 32.3222 43.92 32.4906 43.92H36.257C37.2675 43.9228 38.2034 44.4526 38.7258 45.3176L38.7906 45.4248C39.1835 46.0803 39.1409 46.9084 38.6826 47.52H34.3086C32.8869 47.5187 31.4969 47.9397 30.3148 48.7296L29.787 49.081C29.4562 49.3017 29.3669 49.7488 29.5876 50.0796C29.8083 50.4105 30.2554 50.4998 30.5862 50.2791L31.1133 49.9277C32.059 49.2957 33.1712 48.9589 34.3086 48.96H40.708C40.7973 48.96 40.8844 48.9449 40.973 48.9384C40.9852 48.9384 40.9967 48.9456 41.0082 48.9456C41.0371 48.9419 41.0657 48.9364 41.0939 48.9291C41.3497 48.905 41.6022 48.8536 41.847 48.7757L55.175 44.3326C55.6629 44.1643 56.2041 44.3154 56.5343 44.712C56.5466 44.7329 56.561 44.7531 56.5754 44.7732C56.7876 45.0557 56.8706 45.4146 56.804 45.7616C56.7373 46.1085 56.5272 46.4111 56.2254 46.5948L42.729 54.81C42.0522 55.2221 41.2751 55.44 40.4826 55.44H22.9866V41.04H24.2826C25.6106 41.0418 26.8988 41.4938 27.9366 42.3223ZM16.5067 40.32C16.5067 39.9224 16.829 39.6 17.2267 39.6H20.8266C21.2243 39.6 21.5466 39.9224 21.5466 40.32V55.44C21.5466 55.8377 21.2243 56.16 20.8266 56.16H17.2267C16.829 56.16 16.5067 55.8377 16.5067 55.44V40.32Z" fill="white"/>
</g>
<defs>
<clipPath id="clip0_409_1444">
<rect width="43.2" height="43.2" fill="white" transform="translate(15.0667 14.4)"/>
</clipPath>
</defs>
</svg>
