<svg width="14" height="23" viewBox="0 0 14 23" fill="none" xmlns="http://www.w3.org/2000/svg">
<path d="M11.5257 22.923C12.3116 23.185 13.1611 22.7603 13.423 21.9743C13.685 21.1884 13.2603 20.3389 12.4743 20.077L11.5257 22.923ZM2 11.5L0.939339 10.4393C0.361987 11.0167 0.352467 11.9498 0.917919 12.5388L2 11.5ZM13.0607 2.56066C13.6464 1.97487 13.6464 1.02512 13.0607 0.439338C12.4749 -0.146447 11.5251 -0.146447 10.9393 0.439338L13.0607 2.56066ZM12.4743 20.077C12.5815 20.1127 12.6579 20.1527 12.6898 20.17C12.7276 20.1905 12.7536 20.2073 12.7646 20.2146C12.7858 20.2285 12.7896 20.2326 12.7701 20.2173C12.7324 20.1878 12.6647 20.1311 12.5614 20.039C12.3579 19.8579 12.0743 19.5917 11.7218 19.2516C11.0201 18.5743 10.0886 17.6454 9.06653 16.6119C7.02455 14.5471 4.64774 12.0921 3.08208 10.4612L0.917919 12.5388C2.48952 14.1759 4.87741 16.6424 6.93347 18.7214C7.96041 19.7598 8.9113 20.7084 9.63848 21.4102C10.0005 21.7596 10.318 22.0584 10.5664 22.2796C10.689 22.3887 10.8099 22.4926 10.9191 22.5782C10.973 22.6204 11.0399 22.6708 11.113 22.719C11.1586 22.7491 11.315 22.8528 11.5257 22.923L12.4743 20.077ZM3.06066 12.5607L13.0607 2.56066L10.9393 0.439338L0.939339 10.4393L3.06066 12.5607Z" fill="#558D84"/>
</svg>
