<svg width="14" height="23" viewBox="0 0 14 23" fill="none" xmlns="http://www.w3.org/2000/svg">
<path d="M2.47434 22.923C1.68843 23.185 0.838946 22.7603 0.576975 21.9743C0.315003 21.1884 0.739743 20.3389 1.52566 20.077L2.47434 22.923ZM12 11.5L13.0607 10.4393C13.638 11.0167 13.6475 11.9498 13.0821 12.5388L12 11.5ZM0.93934 2.56066C0.353554 1.97487 0.353554 1.02512 0.939341 0.439338C1.52513 -0.146447 2.47487 -0.146447 3.06066 0.439338L0.93934 2.56066ZM1.52566 20.077C1.4185 20.1127 1.34209 20.1527 1.31016 20.17C1.27244 20.1905 1.24639 20.2073 1.23537 20.2146C1.21425 20.2285 1.21035 20.2326 1.2299 20.2173C1.26755 20.1878 1.33526 20.1311 1.43863 20.039C1.64209 19.8579 1.92572 19.5917 2.27818 19.2516C2.97993 18.5743 3.91139 17.6454 4.93347 16.6119C6.97545 14.5471 9.35226 12.0921 10.9179 10.4612L13.0821 12.5388C11.5105 14.1759 9.12259 16.6424 7.06653 18.7214C6.03959 19.7598 5.0887 20.7084 4.36152 21.4102C3.99953 21.7596 3.68205 22.0584 3.43361 22.2796C3.31103 22.3887 3.19009 22.4926 3.08087 22.5782C3.02699 22.6204 2.96011 22.6708 2.887 22.719C2.8414 22.7491 2.68497 22.8528 2.47434 22.923L1.52566 20.077ZM10.9393 12.5607L0.93934 2.56066L3.06066 0.439338L13.0607 10.4393L10.9393 12.5607Z" fill="#558D84"/>
</svg>
