<svg width="25" height="24" viewBox="0 0 25 24" fill="none" xmlns="http://www.w3.org/2000/svg">
<path d="M12.1738 12.6753C12.2151 12.7167 12.2642 12.7495 12.3182 12.7719C12.3723 12.7943 12.4302 12.8059 12.4887 12.8059C12.5472 12.8059 12.6051 12.7943 12.6591 12.7719C12.7131 12.7495 12.7622 12.7167 12.8035 12.6753L17.3704 8.10845C18.0363 7.45581 18.4199 6.56818 18.4388 5.63599C18.4578 4.7038 18.1107 3.8013 17.4719 3.12211C16.8331 2.44292 15.9535 2.04115 15.0219 2.00299C14.0903 1.96483 13.1809 2.29332 12.4887 2.91799C11.7965 2.29332 10.887 1.96483 9.95542 2.00299C9.02381 2.04115 8.14427 2.44292 7.50548 3.12211C6.86669 3.8013 6.51955 4.7038 6.53852 5.63599C6.55749 6.56818 6.94107 7.45581 7.60696 8.10845L12.1738 12.6753ZM8.23795 3.69763C8.7397 3.19706 9.41951 2.91594 10.1283 2.91594C10.837 2.91594 11.5168 3.19706 12.0185 3.69763L12.1748 3.85391C12.2584 3.93738 12.3716 3.98426 12.4897 3.98426C12.6078 3.98426 12.721 3.93738 12.8046 3.85391L12.9608 3.69763C13.4622 3.19656 14.1422 2.9152 14.851 2.91543C15.5599 2.91567 16.2396 3.19749 16.7407 3.6989C17.2417 4.2003 17.5231 4.88022 17.5229 5.58908C17.5226 6.29794 17.2408 6.97766 16.7394 7.47873L12.4887 11.7305L8.23795 7.47975C7.73704 6.97787 7.45571 6.29776 7.45571 5.58869C7.45571 4.87961 7.73704 4.1995 8.23795 3.69763Z" fill="white"/>
<path d="M21.9672 14.4777C21.8128 14.3736 21.6352 14.309 21.45 14.2896C21.2648 14.2702 21.0777 14.2966 20.9051 14.3664L15.3237 16.6262L14.3905 16.4989C14.666 16.3695 14.8892 16.1501 15.0233 15.8769C15.1574 15.6036 15.1943 15.2928 15.1281 14.9958C15.0619 14.6987 14.8964 14.433 14.659 14.2426C14.4215 14.0522 14.1263 13.9484 13.8219 13.9482H9.24639C8.68189 13.9496 8.12527 14.0809 7.61969 14.332C7.11411 14.5832 6.67314 14.9473 6.33096 15.3963L2.61476 19.7055C2.575 19.7496 2.54444 19.8012 2.52489 19.8572C2.50533 19.9132 2.49716 19.9726 2.50087 20.0318C2.50458 20.091 2.52008 20.1489 2.54647 20.2021C2.57287 20.2552 2.60961 20.3026 2.65455 20.3413C2.6995 20.3801 2.75173 20.4095 2.80819 20.4277C2.86465 20.446 2.92419 20.4529 2.98332 20.4478C3.04244 20.4428 3.09997 20.4259 3.15251 20.3984C3.20505 20.3708 3.25155 20.333 3.28928 20.2872L7.01616 15.967C7.02253 15.9596 7.02889 15.9519 7.03475 15.944C7.2934 15.6017 7.62775 15.3238 8.01165 15.1321C8.39554 14.9404 8.81858 14.8401 9.24766 14.8391H13.8219C13.9337 14.8389 14.0415 14.8806 14.1241 14.9558C14.2067 15.0311 14.2582 15.1345 14.2685 15.2458C14.2787 15.3571 14.247 15.4682 14.1794 15.5573C14.1119 15.6464 14.0135 15.707 13.9036 15.7272L11.6383 16.1467C11.5341 16.1659 11.4402 16.2216 11.3734 16.3038C11.3066 16.386 11.2713 16.4894 11.2738 16.5953C11.2763 16.7012 11.3165 16.8027 11.3871 16.8816C11.4577 16.9606 11.5542 17.0118 11.6591 17.0261L15.3198 17.5252C15.3968 17.5354 15.4751 17.5255 15.5471 17.4964L21.2385 15.1921C21.2756 15.1765 21.3161 15.1706 21.3562 15.1748C21.3962 15.179 21.4345 15.1933 21.4676 15.2163C21.5018 15.2394 21.5297 15.2706 21.5489 15.3072C21.568 15.3437 21.5778 15.3845 21.5772 15.4257C21.5767 15.467 21.5659 15.5075 21.5459 15.5435C21.5258 15.5796 21.497 15.6101 21.4622 15.6322L15.6495 19.255C15.2814 19.4844 14.8563 19.6058 14.4226 19.6055H9.22425C9.12104 19.6057 9.0211 19.6417 8.94146 19.7073L7.12663 21.1966C7.07809 21.2325 7.03736 21.278 7.00693 21.3302C6.9765 21.3823 6.95699 21.4401 6.9496 21.5001C6.94221 21.56 6.94709 21.6209 6.96394 21.6789C6.98079 21.7369 7.00926 21.7908 7.04763 21.8375C7.08599 21.8841 7.13343 21.9225 7.18709 21.9503C7.24074 21.978 7.29947 21.9945 7.35971 21.9989C7.41996 22.0032 7.48046 21.9953 7.53753 21.9755C7.5946 21.9557 7.64705 21.9245 7.6917 21.8838L9.38333 20.4964H14.4231C15.0234 20.4968 15.6117 20.3287 16.1211 20.0112L21.9357 16.3882C22.0965 16.2874 22.2297 16.1481 22.323 15.9827C22.4163 15.8174 22.4669 15.6314 22.4701 15.4416C22.4733 15.2518 22.429 15.0642 22.3413 14.8959C22.2535 14.7276 22.1251 14.5838 21.9678 14.4777H21.9672Z" fill="white"/>
</svg>
