<svg width="52" height="52" viewBox="0 0 52 52" fill="none" xmlns="http://www.w3.org/2000/svg">
<rect width="52" height="52" rx="8" fill="#558D84"/>
<path d="M14.577 30.5257C14.315 31.3116 14.7397 32.1611 15.5257 32.423C16.3116 32.685 17.1611 32.2603 17.423 31.4743L14.577 30.5257ZM26 21L27.0607 19.9393C26.4833 19.362 25.5502 19.3525 24.9612 19.9179L26 21ZM34.9393 32.0607C35.5251 32.6464 36.4749 32.6464 37.0607 32.0607C37.6464 31.4749 37.6464 30.5251 37.0607 29.9393L34.9393 32.0607ZM17.423 31.4743C17.3873 31.5815 17.3473 31.6579 17.33 31.6898C17.3095 31.7276 17.2927 31.7536 17.2854 31.7646C17.2715 31.7858 17.2674 31.7896 17.2827 31.7701C17.3122 31.7324 17.3689 31.6647 17.461 31.5614C17.6421 31.3579 17.9083 31.0743 18.2484 30.7218C18.9257 30.0201 19.8546 29.0886 20.8881 28.0665C22.9529 26.0246 25.4079 23.6477 27.0388 22.0821L24.9612 19.9179C23.3241 21.4895 20.8576 23.8774 18.7786 25.9335C17.7402 26.9604 16.7916 27.9113 16.0898 28.6385C15.7404 29.0005 15.4416 29.318 15.2204 29.5664C15.1113 29.689 15.0074 29.8099 14.9218 29.9191C14.8796 29.973 14.8292 30.0399 14.781 30.113C14.7509 30.1586 14.6472 30.315 14.577 30.5257L17.423 31.4743ZM24.9393 22.0607L34.9393 32.0607L37.0607 29.9393L27.0607 19.9393L24.9393 22.0607Z" fill="white"/>
</svg>
